<?xml version="1.0" encoding="UTF-8" standalone="no"?>
<!DOCTYPE svg PUBLIC "-//W3C//DTD SVG 1.1//EN" "http://www.w3.org/Graphics/SVG/1.1/DTD/svg11.dtd">
<svg width="100%" height="100%" viewBox="0 0 1838 497" version="1.1" xmlns="http://www.w3.org/2000/svg" xmlns:xlink="http://www.w3.org/1999/xlink" xml:space="preserve" xmlns:serif="http://www.serif.com/" style="fill-rule:evenodd;clip-rule:evenodd;stroke-linejoin:round;stroke-miterlimit:2;">
    <g transform="matrix(7.97604,0,0,7.79579,-12146.3,-13655.7)">
        <g transform="matrix(80.5784,69.1766,67.6133,-82.4415,1508.52,1769.15)">
            <path d="M-0,0.212L0.097,0.096L0.267,0.066L0.156,0.198L0.284,0.305C0.323,0.338 0.381,0.333 0.414,0.294C0.429,0.277 0.453,0.233 0.416,0.177C0.387,0.134 0.394,0.091 0.419,0.061C0.433,0.044 0.452,0.034 0.472,0.03L0.472,0.03L0.664,-0.004L0.775,0.089L0.532,0.132C0.526,0.133 0.523,0.139 0.526,0.144C0.56,0.214 0.553,0.301 0.499,0.365C0.427,0.452 0.297,0.461 0.211,0.389L-0,0.212Z" style="fill:url(#_Linear1);fill-rule:nonzero;"/>
        </g>
        <g transform="matrix(0.268834,0,0,0.27505,1547.61,1769.59)">
            <path d="M0,28.949C-7.981,28.949 -14.475,22.455 -14.475,14.474C-14.475,6.493 -7.981,0 0,0C7.98,0 14.474,6.493 14.474,14.474C14.474,22.455 7.98,28.949 0,28.949" style="fill:rgb(210,21,103);fill-rule:nonzero;"/>
        </g>
        <g transform="matrix(143.926,123.56,120.768,-147.254,1596.37,1678.05)">
            <path d="M0.908,0.105L0.919,0.092L0.94,0.109L0.987,0.053L1,0.064L0.953,0.12L0.974,0.138L0.963,0.15L0.908,0.105ZM0.762,-0.077C0.778,-0.096 0.807,-0.098 0.826,-0.082C0.845,-0.066 0.847,-0.038 0.831,-0.019C0.815,0 0.787,0.003 0.768,-0.013C0.749,-0.029 0.746,-0.057 0.762,-0.077ZM0.775,-0.066C0.765,-0.054 0.767,-0.036 0.779,-0.026C0.791,-0.016 0.808,-0.018 0.818,-0.029C0.828,-0.041 0.827,-0.059 0.815,-0.069C0.803,-0.079 0.785,-0.078 0.775,-0.066ZM0.287,-0.416L0.345,-0.485L0.358,-0.474L0.311,-0.418L0.325,-0.406C0.331,-0.401 0.34,-0.402 0.345,-0.408C0.347,-0.411 0.351,-0.417 0.345,-0.426C0.341,-0.432 0.342,-0.439 0.346,-0.444C0.348,-0.446 0.351,-0.448 0.354,-0.448L0.354,-0.448L0.383,-0.454L0.4,-0.439L0.363,-0.433C0.362,-0.433 0.362,-0.432 0.362,-0.431C0.368,-0.42 0.366,-0.407 0.358,-0.397C0.347,-0.384 0.327,-0.383 0.314,-0.394L0.287,-0.416ZM0.674,-0.092L0.732,-0.161L0.745,-0.15L0.698,-0.094L0.712,-0.082C0.718,-0.077 0.727,-0.078 0.732,-0.084C0.734,-0.086 0.738,-0.094 0.732,-0.102C0.727,-0.108 0.728,-0.113 0.732,-0.118L0.735,-0.122L0.741,-0.117C0.754,-0.106 0.756,-0.086 0.745,-0.073C0.734,-0.06 0.714,-0.058 0.701,-0.069L0.674,-0.092ZM0.871,-0.045L0.884,-0.034L0.826,0.035L0.813,0.024L0.871,-0.045ZM0.607,-0.207C0.623,-0.226 0.651,-0.229 0.671,-0.213C0.679,-0.206 0.684,-0.196 0.686,-0.186L0.666,-0.162L0.653,-0.173L0.667,-0.19C0.665,-0.194 0.663,-0.197 0.66,-0.2C0.648,-0.21 0.63,-0.208 0.62,-0.196C0.61,-0.184 0.612,-0.166 0.623,-0.156C0.629,-0.152 0.635,-0.149 0.647,-0.15L0.641,-0.133C0.631,-0.133 0.621,-0.137 0.613,-0.143C0.594,-0.16 0.591,-0.188 0.607,-0.207ZM0.445,-0.343C0.461,-0.362 0.489,-0.365 0.508,-0.349C0.517,-0.342 0.522,-0.332 0.524,-0.323L0.508,-0.314C0.506,-0.326 0.503,-0.331 0.497,-0.336C0.486,-0.346 0.468,-0.344 0.458,-0.332C0.448,-0.32 0.449,-0.303 0.461,-0.293C0.466,-0.288 0.473,-0.286 0.484,-0.286L0.479,-0.269C0.469,-0.269 0.459,-0.273 0.45,-0.28C0.431,-0.296 0.429,-0.324 0.445,-0.343ZM0.885,0.085L0.925,0.038L0.852,0.057L0.852,0.057L0.839,0.046L0.896,-0.023L0.909,-0.012L0.87,0.035L0.927,0.02C0.943,0.016 0.948,0.02 0.956,0.027L0.898,0.096L0.885,0.085ZM0.555,-0.192L0.595,-0.238L0.522,-0.22L0.522,-0.22L0.509,-0.231L0.567,-0.3L0.579,-0.289L0.54,-0.242L0.597,-0.256C0.613,-0.261 0.618,-0.256 0.626,-0.25L0.568,-0.181L0.555,-0.192ZM0.541,-0.322L0.554,-0.311L0.496,-0.242L0.483,-0.253L0.541,-0.322ZM0.374,-0.343L0.404,-0.436L0.417,-0.425L0.41,-0.403L0.44,-0.377L0.461,-0.389L0.474,-0.378L0.387,-0.333L0.374,-0.343ZM0.394,-0.354L0.423,-0.369L0.404,-0.385L0.394,-0.354ZM0.445,-0.343C0.445,-0.343 0.445,-0.343 0.445,-0.343L0.445,-0.343Z" style="fill:url(#_Linear2);fill-rule:nonzero;"/>
        </g>
    </g>
    <defs>
        <linearGradient id="_Linear1" x1="0" y1="0" x2="1" y2="0" gradientUnits="userSpaceOnUse" gradientTransform="matrix(1,-5.55112e-17,-5.55112e-17,-1,0,-0.024007)"><stop offset="0" style="stop-color:rgb(213,212,213);stop-opacity:1"/><stop offset="1" style="stop-color:rgb(213,212,213);stop-opacity:1"/></linearGradient>
        <linearGradient id="_Linear2" x1="0" y1="0" x2="1" y2="0" gradientUnits="userSpaceOnUse" gradientTransform="matrix(1,-5.55112e-17,-5.55112e-17,-1,0,-0.024007)"><stop offset="0" style="stop-color:rgb(213,212,213);stop-opacity:1"/><stop offset="1" style="stop-color:rgb(213,212,213);stop-opacity:1"/></linearGradient>
    </defs>
</svg>
